<?xml version="1.0" encoding="UTF-8" standalone="no"?>
<svg
   xmlns:dc="http://purl.org/dc/elements/1.1/"
   xmlns:cc="http://creativecommons.org/ns#"
   xmlns:rdf="http://www.w3.org/1999/02/22-rdf-syntax-ns#"
   xmlns:svg="http://www.w3.org/2000/svg"
   xmlns="http://www.w3.org/2000/svg"
   id="svg4523"
   version="1.0"
   width="100%"
   height="100%"
   viewBox="0 0 1000 460"
   preserveAspectRatio="xMinYMin slice">
  <metadata
     id="metadata47">
    <rdf:RDF>
      <cc:Work
         rdf:about="">
        <dc:format>image/svg+xml</dc:format>
        <dc:type
           rdf:resource="http://purl.org/dc/dcmitype/StillImage" />
        <dc:title></dc:title>
      </cc:Work>
    </rdf:RDF>
  </metadata>
  <defs
     id="defs4525" />
  <g
     id="layer1"
     transform="matrix(1.0204082,0,0,1.0204082,-10.204084,-24.636292)">
    <g
       transform="matrix(2.0960172,0,0,2.0960172,-293.72903,-223.21478)"
       id="g4572">
      <path
         d="M 609.84127,118.62051 H 499.86416 v 37.45739 h 32.15514 v 129.13338 h 45.66699 V 156.0779 h 32.15498 z M 488.91767,285.04017 H 443.25055 V 118.62051 h 45.66712 z m -53.3638,0 H 384.75576 L 324.37952,220.21702 V 183.1018 l 58.49479,-64.65241 h 52.3376 l -67.38884,83.80867 z"
         id="path73"
         style="fill:#000000;fill-opacity:1;fill-rule:evenodd;stroke:none" />
      <path
         d="M 313.43303,285.04017 Z"
         id="path75"
         style="fill:#000000;fill-opacity:1;fill-rule:evenodd;stroke:none" />
      <path
         d="M 313.43303,285.04017 Z"
         id="path77"
         style="fill:#000000;fill-opacity:1;fill-rule:evenodd;stroke:none" />
      <path
         d="m 183.27346,179.50994 c -8.723,10.60444 -16.24854,22.23502 -22.06398,34.72072 l 152.22355,70.80951 z"
         id="path79"
         style="fill:#32a189;fill-opacity:1;fill-rule:evenodd;stroke:none" />
      <path
         d="M 313.43303,285.04017 242.45248,134.01399 c -12.65686,5.81511 -24.28734,12.99896 -34.89167,21.55082 z"
         id="path81"
         style="fill:#32a189;fill-opacity:1;fill-rule:evenodd;stroke:none" />
      <path
         d="m 313.43303,285.04017 0.17102,-166.41966 c -0.51307,0 -0.85508,0 -1.36818,0 -13.51204,0 -26.68195,1.71057 -39.33867,4.78918 z"
         id="path83"
         style="fill:#000000;fill-opacity:1;fill-rule:evenodd;stroke:none" />
      <path
         d="M 313.43303,285.04017 Z"
         id="path85"
         style="fill:#000000;fill-opacity:1;fill-rule:evenodd;stroke:none" />
      <path
         d="M 313.43303,285.04017 Z"
         id="path87"
         style="fill:#000000;fill-opacity:1;fill-rule:evenodd;stroke:none" />
      <path
         d="m 150.26314,244.33329 c -3.42068,12.99896 -5.13108,26.68184 -5.30216,40.70688 h 168.47205 z"
         id="path89"
         style="fill:#32a189;fill-opacity:1;fill-rule:evenodd;stroke:none" />
      <path
         d="m 144.9077,326.33115 h 3.04098 v -10.40014 l 9.45735,10.40014 h 4.44018 l -10.76513,-11.19067 9.97458,-10.03521 h -4.04487 l -9.06211,9.33619 v -9.33619 h -3.04098 z"
         id="path91"
         style="fill:#000000;fill-opacity:1;fill-rule:nonzero;stroke:none" />
      <path
         d="m 165.64735,314.34987 c 1.1555,-0.97306 2.88877,-1.58113 4.50015,-1.58113 2.85905,0 3.83208,1.36844 3.83208,4.04439 -1.12521,-0.0606 -1.91567,-0.0606 -3.04088,-0.0606 -2.95003,0 -7.20776,1.21589 -7.20776,5.10888 0,3.37554 2.34198,4.84007 5.68723,4.84007 2.6147,0 4.13522,-1.43423 4.80447,-2.37697 h 0.0606 v 2.00668 h 2.67591 c -0.0606,-0.45584 -0.12119,-1.27678 -0.12119,-3.04102 v -6.41639 c 0,-4.22679 -1.79451,-6.41656 -6.23402,-6.41656 -1.97696,0 -3.67991,0.60882 -5.10882,1.45989 z m 8.33223,5.96073 c 0,2.31096 -1.49013,4.07452 -4.31832,4.07452 -1.30765,0 -2.88871,-0.88144 -2.88871,-2.52375 0,-2.73728 3.83144,-2.9804 5.38224,-2.9804 0.60802,0 1.21604,0.0606 1.82479,0.0606 z"
         id="path93"
         style="fill:#000000;fill-opacity:1;fill-rule:nonzero;stroke:none" />
      <path
         d="m 181.67344,326.33115 h 2.85849 v -7.05494 c 0,-3.89201 1.67261,-6.32491 4.22667,-6.32491 0.48689,0 1.06459,0.0606 1.58178,0.27345 v -2.55414 c -0.6081,-0.12183 -1.03428,-0.21343 -1.88548,-0.21343 -1.64228,0 -3.28468,1.15616 -4.04484,2.76757 h -0.0607 v -2.40268 h -2.67592 z"
         id="path95"
         style="fill:#000000;fill-opacity:1;fill-rule:nonzero;stroke:none" />
      <path
         d="m 193.86812,326.33115 h 2.85844 v -22.80699 h -2.85844 z"
         id="path97"
         style="fill:#000000;fill-opacity:1;fill-rule:nonzero;stroke:none" />
      <path
         d="m 200.64956,325.84486 c 1.30774,0.70436 2.79788,0.85658 4.25706,0.85658 2.76751,0 5.41316,-1.52585 5.41316,-4.84007 0,-4.95676 -6.72017,-4.0449 -6.72017,-7.20718 0,-1.27738 1.27671,-1.88545 2.73656,-1.88545 0.66934,0 2.37222,0.39538 3.01054,0.79063 l 0.24319,-2.49337 c -1.12521,-0.33466 -2.21947,-0.60882 -3.55811,-0.60882 -3.07121,0 -5.4738,1.5514 -5.4738,4.77481 0,4.34869 6.72097,4.1048 6.72097,6.93299 0,1.67264 -1.61144,2.22014 -2.91916,2.22014 -0.82145,0 -2.43281,-0.365 -3.55807,-1.09499 z"
         id="path99"
         style="fill:#000000;fill-opacity:1;fill-rule:nonzero;stroke:none" />
      <path
         d="m 213.78691,326.33115 h 2.85849 v -7.05494 c 0,-3.89201 1.67262,-6.32491 4.22669,-6.32491 0.4868,0 1.0646,0.0606 1.58177,0.27345 v -2.55414 c -0.60808,-0.12183 -1.03436,-0.21343 -1.88543,-0.21343 -1.64234,0 -3.28471,1.15616 -4.04496,2.76757 h -0.0606 v -2.40268 h -2.67595 z"
         id="path101"
         style="fill:#000000;fill-opacity:1;fill-rule:nonzero;stroke:none" />
      <path
         d="m 239.33103,310.82207 h -2.85838 v 7.17676 c 0,3.77091 -1.45921,6.38629 -4.71358,6.38629 -2.49348,-0.15227 -3.28403,-1.91579 -3.28403,-5.53445 v -8.0286 h -2.85844 v 9.21448 c 0,4.166 1.79393,6.66489 5.80849,6.66489 2.15882,0 4.22667,-1.06931 5.07852,-2.83351 h 0.0606 v 2.46322 h 2.76684 z"
         id="path103"
         style="fill:#000000;fill-opacity:1;fill-rule:nonzero;stroke:none" />
      <path
         d="m 244.19684,326.33115 h 2.85843 v -7.17671 c 0,-3.77024 1.45983,-6.3857 4.71356,-6.3857 2.49348,0.15166 3.28397,1.91593 3.28397,5.53458 v 8.02783 h 2.85849 v -9.2137 c 0,-4.16615 -1.79384,-6.66027 -5.80783,-6.66027 -2.15948,0 -3.95328,0.9427 -4.98761,2.58501 h -0.0606 v -9.51803 h -2.85843 z"
         id="path105"
         style="fill:#000000;fill-opacity:1;fill-rule:nonzero;stroke:none" />
      <path
         d="m 274.66733,322.83425 c -0.69967,0.5778 -2.88875,1.55087 -4.7742,1.55087 -2.70696,0 -5.10888,-2.09837 -5.10888,-5.16952 h 11.06892 c 0,-4.98754 -1.67273,-8.75842 -6.84215,-8.75842 -4.37885,0 -7.26829,3.25443 -7.26829,7.84614 0,5.04812 2.52439,8.39812 8.02853,8.39812 2.55408,0 3.80116,-0.61343 4.89607,-1.0087 z m -9.88308,-5.7471 c 0.21284,-2.00724 1.36836,-4.31841 4.16615,-4.31841 2.4632,0 3.86174,1.94603 3.86174,4.31841 z"
         id="path107"
         style="fill:#000000;fill-opacity:1;fill-rule:nonzero;stroke:none" />
      <path
         d="m 288.41269,326.33115 h 3.04094 v -21.22588 h -3.04094 z"
         id="path109"
         style="fill:#000000;fill-opacity:1;fill-rule:nonzero;stroke:none" />
      <path
         d="m 296.5934,326.33115 h 2.85849 v -7.17671 c 0,-3.77024 1.45984,-6.3857 4.71351,-6.3857 2.49346,0.15166 3.28402,1.91593 3.28402,5.53458 v 8.02783 h 2.85849 v -9.2137 c 0,-4.16615 -1.79392,-6.66027 -5.8078,-6.66027 -2.1595,0 -4.22741,1.06465 -5.07852,2.82816 h -0.0606 v -2.46327 h -2.76758 z"
         id="path111"
         style="fill:#000000;fill-opacity:1;fill-rule:nonzero;stroke:none" />
      <path
         d="m 313.86595,325.84486 c 1.3077,0.70436 2.79783,0.85658 4.25695,0.85658 2.76757,0 5.41319,-1.52585 5.41319,-4.84007 0,-4.95676 -6.72014,-4.0449 -6.72014,-7.20718 0,-1.27738 1.27664,-1.88545 2.73653,-1.88545 0.66937,0 2.37229,0.39538 3.01061,0.79063 l 0.24312,-2.49337 c -1.12527,-0.33466 -2.21943,-0.60882 -3.55804,-0.60882 -3.07128,0 -5.47383,1.5514 -5.47383,4.77481 0,4.34869 6.72087,4.1048 6.72087,6.93299 0,1.67264 -1.61133,2.22014 -2.9191,2.22014 -0.82148,0 -2.43277,-0.365 -3.55804,-1.09499 z"
         id="path113"
         style="fill:#000000;fill-opacity:1;fill-rule:nonzero;stroke:none" />
      <path
         d="m 335.24466,310.82207 h -4.10554 v -4.50003 l -2.85849,0.91169 v 3.58834 h -3.49746 v 2.31177 h 3.49746 v 9.06218 c 0,3.10149 1.82411,4.50542 4.77416,4.50542 0.91244,0 1.7939,-0.24297 2.43293,-0.43087 v -2.43295 c -0.4256,0.27401 -1.06457,0.5475 -1.94671,0.5475 -1.30701,0 -2.40189,-0.97307 -2.40189,-2.7669 v -8.48438 h 4.10554 z"
         id="path115"
         style="fill:#000000;fill-opacity:1;fill-rule:nonzero;stroke:none" />
      <path
         d="m 339.19796,326.33115 h 2.85844 v -15.50908 h -2.85844 z m 3.04089,-22.19892 h -3.22342 v 3.22343 h 3.22342 z"
         id="path117"
         style="fill:#000000;fill-opacity:1;fill-rule:nonzero;stroke:none" />
      <path
         d="m 355.52837,310.82207 h -4.10548 v -4.50003 l -2.8584,0.91169 v 3.58834 h -3.49754 v 2.31177 h 3.49754 v 9.06218 c 0,3.10149 1.82415,4.50542 4.77411,4.50542 0.91243,0 1.7939,-0.24297 2.43295,-0.43087 v -2.43295 c -0.42556,0.27401 -1.06469,0.5475 -1.9468,0.5475 -1.30695,0 -2.40186,-0.97307 -2.40186,-2.7669 v -8.48438 h 4.10548 z"
         id="path119"
         style="fill:#000000;fill-opacity:1;fill-rule:nonzero;stroke:none" />
      <path
         d="m 372.83126,310.82207 h -2.85849 v 7.17676 c 0,3.77091 -1.45918,6.38629 -4.71356,6.38629 -2.4935,-0.15227 -3.28397,-1.91579 -3.28397,-5.53445 v -8.0286 h -2.85849 v 9.21448 c 0,4.166 1.79389,6.66489 5.80845,6.66489 2.15883,0 4.2268,-1.06931 5.07861,-2.83351 h 0.0606 v 2.46322 h 2.76687 z"
         id="path121"
         style="fill:#000000;fill-opacity:1;fill-rule:nonzero;stroke:none" />
      <path
         d="m 385.93825,310.82207 h -4.10548 v -4.50003 l -2.85849,0.91169 v 3.58834 h -3.49746 v 2.31177 h 3.49746 v 9.06218 c 0,3.10149 1.8242,4.50542 4.77425,4.50542 0.91234,0 1.79384,-0.24297 2.43287,-0.43087 v -2.43295 c -0.42557,0.27401 -1.06465,0.5475 -1.94681,0.5475 -1.30692,0 -2.40182,-0.97307 -2.40182,-2.7669 v -8.48438 h 4.10548 z"
         id="path123"
         style="fill:#000000;fill-opacity:1;fill-rule:nonzero;stroke:none" />
      <path
         d="m 401.41696,322.83425 c -0.6997,0.5778 -2.88876,1.55087 -4.77423,1.55087 -2.7069,0 -5.10881,-2.09837 -5.10881,-5.16952 h 11.0688 c 0,-4.98754 -1.67262,-8.75842 -6.84204,-8.75842 -4.3789,0 -7.26829,3.25443 -7.26829,7.84614 0,5.04812 2.52443,8.39812 8.02848,8.39812 2.55409,0 3.80116,-0.61343 4.89609,-1.0087 z m -9.88304,-5.7471 c 0.21278,-2.00724 1.36835,-4.31841 4.16618,-4.31841 2.46314,0 3.86173,1.94603 3.86173,4.31841 z"
         id="path125"
         style="fill:#000000;fill-opacity:1;fill-rule:nonzero;stroke:none" />
      <path
         d="m 413.85467,318.57663 c 0,4.44019 3.22345,8.12481 7.90664,8.12481 4.65301,0 7.87628,-3.68462 7.87628,-8.12481 0,-4.71349 -3.1628,-8.11945 -7.87628,-8.11945 -4.74382,0 -7.90664,3.40596 -7.90664,8.11945 z m 3.04163,0 c 0,-2.94926 1.79374,-5.80789 4.86501,-5.80789 3.04095,0 4.83537,2.85863 4.83537,5.80789 0,2.76754 -1.49008,5.80849 -4.83537,5.80849 -3.37558,0 -4.86501,-3.04095 -4.86501,-5.80849 z"
         id="path127"
         style="fill:#000000;fill-opacity:1;fill-rule:nonzero;stroke:none" />
      <path
         d="m 435.3242,326.33115 h 2.85853 v -13.19731 h 4.10541 v -2.31177 h -4.10541 v -1.67184 c 0,-2.09892 0.30367,-3.68003 2.76672,-3.68003 0.48697,0 1.03441,0.0606 1.36904,0.18242 l 0.12112,-2.31085 c -0.57768,-0.0917 -1.1857,-0.18257 -1.91567,-0.18257 -4.22661,0 -5.19974,2.46327 -5.19974,6.23402 v 1.42885 h -3.64962 v 2.31177 h 3.64962 z"
         id="path129"
         style="fill:#000000;fill-opacity:1;fill-rule:nonzero;stroke:none" />
      <path
         d="m 458.25372,326.33115 h 3.04097 v -18.54992 h 6.59892 v -2.67596 h -16.23899 v 2.67596 h 6.5991 z"
         id="path131"
         style="fill:#000000;fill-opacity:1;fill-rule:nonzero;stroke:none" />
      <path
         d="m 480.30093,322.83425 c -0.69946,0.5778 -2.8887,1.55087 -4.77402,1.55087 -2.70702,0 -5.10893,-2.09837 -5.10893,-5.16952 h 11.06892 c 0,-4.98754 -1.67274,-8.75842 -6.84208,-8.75842 -4.37884,0 -7.26837,3.25443 -7.26837,7.84614 0,5.04812 2.52443,8.39812 8.02853,8.39812 2.554,0 3.80117,-0.61343 4.89595,-1.0087 z m -9.88295,-5.7471 c 0.21285,-2.00724 1.3683,-4.31841 4.16627,-4.31841 2.46299,0 3.86164,1.94603 3.86164,4.31841 z"
         id="path133"
         style="fill:#000000;fill-opacity:1;fill-rule:nonzero;stroke:none" />
      <path
         d="m 495.41472,311.066 c -0.8208,-0.33466 -2.31087,-0.60882 -3.46648,-0.60882 -4.74386,0 -7.90661,3.40596 -7.90661,8.11945 0,4.44019 3.22331,8.12481 7.90661,8.12481 1.03368,0 2.40253,-0.0916 3.5884,-0.64374 l -0.21271,-2.55402 c -0.88213,0.5778 -2.09831,0.88144 -3.07134,0.88144 -3.67991,0 -5.17005,-3.04095 -5.17005,-5.80849 0,-2.94926 1.79449,-5.80789 4.98754,-5.80789 0.91184,0 2.00668,0.21284 3.10158,0.66868 z"
         id="path135"
         style="fill:#000000;fill-opacity:1;fill-rule:nonzero;stroke:none" />
      <path
         d="m 498.82065,326.33115 h 2.85849 v -7.17671 c 0,-3.77024 1.45977,-6.3857 4.71349,-6.3857 2.49345,0.15166 3.28392,1.91593 3.28392,5.53458 v 8.02783 h 2.85863 v -9.2137 c 0,-4.16615 -1.79398,-6.66027 -5.80789,-6.66027 -2.15947,0 -3.95331,0.9427 -4.98752,2.58501 h -0.0606 v -9.51803 h -2.85849 z"
         id="path137"
         style="fill:#000000;fill-opacity:1;fill-rule:nonzero;stroke:none" />
      <path
         d="m 517.40074,326.33115 h 2.85849 v -7.17671 c 0,-3.77024 1.45992,-6.3857 4.71349,-6.3857 2.49357,0.15166 3.28406,1.91593 3.28406,5.53458 v 8.02783 h 2.85849 v -9.2137 c 0,-4.16615 -1.79384,-6.66027 -5.80775,-6.66027 -2.15947,0 -4.2275,1.06465 -5.0786,2.82816 h -0.0606 v -2.46327 h -2.7676 z"
         id="path139"
         style="fill:#000000;fill-opacity:1;fill-rule:nonzero;stroke:none" />
      <path
         d="m 534.94676,318.57663 c 0,4.44019 3.22327,8.12481 7.90662,8.12481 4.65288,0 7.87633,-3.68462 7.87633,-8.12481 0,-4.71349 -3.16284,-8.11945 -7.87633,-8.11945 -4.74392,0 -7.90662,3.40596 -7.90662,8.11945 z m 3.04145,0 c 0,-2.94926 1.79383,-5.80789 4.86517,-5.80789 3.04091,0 4.83542,2.85863 4.83542,5.80789 0,2.76754 -1.49016,5.80849 -4.83542,5.80849 -3.37548,0 -4.86517,-3.04095 -4.86517,-5.80849 z"
         id="path141"
         style="fill:#000000;fill-opacity:1;fill-rule:nonzero;stroke:none" />
      <path
         d="m 554.92616,326.33115 h 2.85847 v -22.80699 h -2.85847 z"
         id="path143"
         style="fill:#000000;fill-opacity:1;fill-rule:nonzero;stroke:none" />
      <path
         d="m 561.98096,318.57663 c 0,4.44019 3.22342,8.12481 7.90664,8.12481 4.65303,0 7.87642,-3.68462 7.87642,-8.12481 0,-4.71349 -3.16278,-8.11945 -7.87642,-8.11945 -4.74381,0 -7.90664,3.40596 -7.90664,8.11945 z m 3.04161,0 c 0,-2.94926 1.79381,-5.80789 4.86503,-5.80789 3.04099,0 4.83557,2.85863 4.83557,5.80789 0,2.76754 -1.49023,5.80849 -4.83557,5.80849 -3.37554,0 -4.86503,-3.04095 -4.86503,-5.80849 z"
         id="path145"
         style="fill:#000000;fill-opacity:1;fill-rule:nonzero;stroke:none" />
      <path
         d="m 595.30991,310.82207 h -2.64565 v 2.31177 h -0.0606 c -0.85126,-1.67259 -2.37164,-2.67666 -5.10891,-2.67666 -4.68316,0 -6.93357,4.25759 -6.93357,8.24141 0,4.01389 2.18977,7.63256 6.62995,7.63256 1.97621,0 3.98361,-0.79064 5.19966,-2.4019 h 0.0607 v 1.52037 c 0,3.28954 -1.79398,5.32708 -4.80453,5.32708 -2.09818,0 -3.40598,-0.39596 -5.59564,-1.39931 l -0.30377,2.64569 c 2.49343,0.85178 3.92231,1.06465 5.56476,1.06465 5.56531,0 7.99753,-2.70699 7.99753,-7.42529 z m -7.38957,13.19805 c -2.67598,0 -4.31753,-2.55414 -4.31753,-5.47379 0,-2.64565 1.42887,-5.77759 4.31753,-5.77759 3.041,0 4.53122,2.76703 4.53122,5.99046 0,2.88935 -1.85456,5.26092 -4.53122,5.26092 z"
         id="path147"
         style="fill:#000000;fill-opacity:1;fill-rule:nonzero;stroke:none" />
      <path
         d="m 598.83764,332.87486 c 0.51722,0.0909 1.03364,0.21287 1.9461,0.21287 3.77077,0 4.89603,-3.43632 5.96054,-6.41656 l 5.71683,-15.8491 h -2.8885 l -4.2578,12.83313 h -0.0607 l -4.16601,-12.83313 h -3.13249 l 5.26095,14.47544 c 0.18257,0.51719 0.5475,1.31232 0.5475,1.64693 0,0.3045 -0.85184,3.83226 -3.40599,3.83226 -0.48674,0 -0.97289,-0.12192 -1.33781,-0.2437 z"
         id="path149"
         style="fill:#000000;fill-opacity:1;fill-rule:nonzero;stroke:none" />
    </g>
  </g>
</svg>
